<?xml version="1.0" standalone="no"?>
<!DOCTYPE svg PUBLIC "-//W3C//DTD SVG 20010904//EN"
 "http://www.w3.org/TR/2001/REC-SVG-20010904/DTD/svg10.dtd">
<svg version="1.0" xmlns="http://www.w3.org/2000/svg"
 width="1024.000000pt" height="1024.000000pt" viewBox="0 0 1024.000000 1024.000000"
 preserveAspectRatio="xMidYMid meet">
<metadata>
Created by potrace 1.11, written by Peter Selinger 2001-2013
</metadata>
<g transform="translate(0.000000,1024.000000) scale(0.100000,-0.100000)"
fill="#000000" stroke="none">
<path d="M500 5120 l0 -4620 4620 0 4620 0 0 4620 0 4620 -4620 0 -4620 0 0
-4620z m6045 3011 c-6 -4 -512 -284 -1125 -620 -613 -337 -1116 -614 -1119
-616 -2 -3 21 -53 51 -112 60 -116 95 -205 130 -336 19 -71 22 -107 23 -267 0
-164 -3 -194 -23 -264 -50 -172 -136 -319 -269 -457 l-83 -86 0 -501 0 -501
53 -10 c148 -31 447 -39 747 -21 819 50 1919 246 3303 586 214 53 391 94 394
90 14 -14 -19 -43 -194 -168 -1017 -727 -2160 -1364 -3164 -1762 -1384 -548
-2558 -668 -3453 -352 -71 25 -140 53 -153 61 -141 93 25 414 455 881 157 170
493 499 718 702 l181 163 22 167 c132 995 320 2013 443 2401 l23 74 1364 458
1364 459 146 19 c178 23 177 23 166 12z"/>
</g>
</svg>
